<svg
   xmlns:dc="http://purl.org/dc/elements/1.1/"
   xmlns:cc="http://creativecommons.org/ns#"
   xmlns:rdf="http://www.w3.org/1999/02/22-rdf-syntax-ns#"
   xmlns:svg="http://www.w3.org/2000/svg"
   xmlns="http://www.w3.org/2000/svg"
   width="200mm"
   height="250mm"
   viewBox="0 0 708.66142 885.82674"
   id="svg2"
   version="1.1">
  <defs
     id="defs4" />
  <metadata
     id="metadata7">
    <rdf:RDF>
      <cc:Work
         rdf:about="">
        <dc:format>Dockmaster</dc:format>
        <dc:type
           rdf:resource="http://purl.org/dc/dcmitype/StillImage" />
        <dc:title></dc:title>
      </cc:Work>
    </rdf:RDF>
  </metadata>
  <g
     id="layer1"
     transform="translate(-7.5706787,-336.30347)">
    <path
       style="fill:none;fill-rule:evenodd;stroke:#aaeeff;stroke-width:3.66253209;stroke-linecap:butt;stroke-linejoin:miter;stroke-opacity:1"
       d="m 387.81736,977.10586 167.68532,0"
       id="path4322" />
    <path
       style="fill:#4d4d4d;fill-rule:evenodd;stroke:#4d4d4d;stroke-width:32;stroke-linecap:butt;stroke-linejoin:miter;stroke-opacity:1"
       d="m 64.568542,628.09816 -35.355339,9.09137"
       id="path4213" />
    <path
       style="opacity:1;fill:#4d4d4d;fill-opacity:1;stroke:#4d4d4d;stroke-width:4.50376844;stroke-opacity:1"
       d="m 227.2205,762.44843 a 8.6037073,8.085804 0 0 1 -8.60371,8.0858 8.6037073,8.085804 0 0 1 -8.60371,-8.0858 8.6037073,8.085804 0 0 1 8.60371,-8.08581 8.6037073,8.085804 0 0 1 8.60371,8.08581 z"
       id="path4156-71-0-0" />
    <path
       style="opacity:1;fill:#4d4d4d;fill-opacity:1;stroke:#4d4d4d;stroke-width:4.50376844;stroke-opacity:1"
       d="m 178.22811,771.03467 a 8.6037073,8.085804 0 0 1 -8.60371,8.0858 8.6037073,8.085804 0 0 1 -8.6037,-8.0858 8.6037073,8.085804 0 0 1 8.6037,-8.08581 8.6037073,8.085804 0 0 1 8.60371,8.08581 z"
       id="path4156-71-0-0-9" />
    <path
       style="opacity:1;fill:#4d4d4d;fill-opacity:1;stroke:#4d4d4d;stroke-width:4.50376844;stroke-opacity:1"
       d="m 129.23572,782.65149 a 8.6037073,8.085804 0 0 1 -8.60371,8.0858 8.6037073,8.085804 0 0 1 -8.60371,-8.0858 8.6037073,8.085804 0 0 1 8.60371,-8.0858 8.6037073,8.085804 0 0 1 8.60371,8.0858 z"
       id="path4156-71-0-0-6" />
    <path
       style="opacity:1;fill:#4d4d4d;fill-opacity:1;stroke:#4d4d4d;stroke-width:4.50376844;stroke-opacity:1"
       d="m 78.728086,797.29871 a 8.6037073,8.085804 0 0 1 -8.603708,8.0858 8.6037073,8.085804 0 0 1 -8.603707,-8.0858 8.6037073,8.085804 0 0 1 8.603707,-8.08581 8.6037073,8.085804 0 0 1 8.603708,8.08581 z"
       id="path4156-71-0-0-5" />
    <path
       style="opacity:1;fill:#4d4d4d;fill-opacity:1;stroke:#4d4d4d;stroke-width:5.08094215;stroke-opacity:1"
       d="m 101.72085,707.48669 19.24496,-4.69987 c 0.71928,-0.17565 1.38633,0.57753 1.49563,1.68874 0.1093,1.11122 -0.38176,2.14723 -1.10103,2.32288 l -19.24496,4.69987 c -0.71927,0.17566 -1.38632,-0.57752 -1.49563,-1.68874 -0.1093,-1.11122 0.38176,-2.14722 1.10103,-2.32288 z"
       id="rect4267" />
    <path
       style="opacity:1;fill:#4d4d4d;fill-opacity:1;stroke:#4d4d4d;stroke-width:5.08094215;stroke-opacity:1"
       d="m 68.917689,717.28886 19.004482,-5.59348 c 0.710285,-0.20905 1.411779,0.51215 1.572857,1.61705 0.161078,1.1049 -0.281062,2.16271 -0.991347,2.37177 L 69.4992,721.27768 c -0.710285,0.20905 -1.411779,-0.51215 -1.572858,-1.61705 -0.161078,-1.1049 0.281062,-2.16271 0.991347,-2.37177 z"
       id="rect4267-2" />
    <path
       style="opacity:1;fill:#4d4d4d;fill-opacity:1;stroke:#4d4d4d;stroke-width:5.08094215;stroke-opacity:1"
       d="m 35.636254,728.89856 18.694719,-6.55476 c 0.698707,-0.24498 1.436046,0.43954 1.653225,1.53479 0.217179,1.09526 -0.170477,2.17422 -0.869184,2.41921 l -18.694719,6.55476 c -0.698707,0.24498 -1.436045,-0.43954 -1.653224,-1.5348 -0.217179,-1.09525 0.170476,-2.17422 0.869183,-2.4192 z"
       id="rect4267-7" />
    <path
       style="fill:#808080;fill-rule:evenodd;stroke:#808080;stroke-width:3;stroke-linecap:butt;stroke-linejoin:miter;stroke-opacity:1"
       d="m 323.1676,630.62354 1.01015,40.4061"
       id="path4265" />
    <path
       style="fill:#1a1a1a;fill-rule:evenodd;stroke:#1a1a1a;stroke-width:8;stroke-linecap:butt;stroke-linejoin:miter;stroke-opacity:1"
       d="M 360.54323,1032.1592 C 389.6693,878.44764 456.17101,767.55733 530.24886,666.37371 l 0,144.45183 C 480.07795,864.70033 433.94765,929.29195 386.8072,1035.1896 Z"
       id="path4138" />
    <path
       style="fill:none;fill-rule:evenodd;stroke:#1a1a1a;stroke-width:8;stroke-linecap:butt;stroke-linejoin:miter;stroke-opacity:1"
       d="m 25.46846,775.9604 c 59.446713,-25.51874 163.48371,-50.29345 223.08271,-52.65047 42.94039,-4.00129 -0.35713,-39.69393 37.68639,-47.63563 70.20901,-11.27203 140.91565,-17.38188 219.36433,-17.80964 l 28.58614,0.23876"
       id="path4140" />
    <path
       style="opacity:1;fill:none;fill-opacity:1;stroke:#666666;stroke-width:10;stroke-opacity:1"
       d="m 400.60507,722.01959 a 15.429292,15.465131 0 0 1 -15.42929,15.46513 15.429292,15.465131 0 0 1 -15.42929,-15.46513 15.429292,15.465131 0 0 1 15.42929,-15.46513 15.429292,15.465131 0 0 1 15.42929,15.46513 z"
       id="path4146" />
    <path
       style="fill:none;fill-rule:evenodd;stroke:#666666;stroke-width:10;stroke-linecap:butt;stroke-linejoin:miter;stroke-opacity:1"
       d="m 382.23025,736.08889 -9.24688,46.78853"
       id="path4148" />
    <path
       style="fill:none;fill-rule:evenodd;stroke:#666666;stroke-width:10;stroke-linecap:butt;stroke-linejoin:miter;stroke-opacity:1"
       d="m 343.87204,758.59835 c 0,0 7.28133,19.53973 28.20083,23.59044 21.15039,4.09541 36.55923,-9.9595 36.55923,-9.9595"
       id="path4150" />
    <path
       style="fill:#808080;fill-rule:evenodd;stroke:#808080;stroke-width:3;stroke-linecap:butt;stroke-linejoin:miter;stroke-opacity:1"
       d="m 226.19295,627.088 7.07107,68.69038"
       id="path4263" />
    <path
       style="fill:none;fill-rule:evenodd;stroke:#1a1a1a;stroke-width:6;stroke-linecap:butt;stroke-linejoin:miter;stroke-opacity:1"
       d="m 268.71428,692.36223 c -41.39442,-0.0254 -95.17681,9.28571 -130.89285,19.28571 l -7.05095,-23.95395 c -39.404756,8.47776 -75.508574,20.50157 -107.770479,32.52538"
       id="path4152" />
    <path
       style="fill:none;fill-rule:evenodd;stroke:#1a1a1a;stroke-width:6;stroke-linecap:butt;stroke-linejoin:miter;stroke-opacity:1"
       d="m 138.35714,711.2908 -17.5,-64.28572 c 92.38095,-21.19047 221.51789,-50.23809 233.21429,20"
       id="path4154" />
    <path
       style="opacity:1;fill:#1a1a1a;fill-opacity:1;stroke:#1a1a1a;stroke-width:3.42946815;stroke-opacity:1"
       d="m 299.6683,647.08307 a 6.3959904,6.3067045 0 0 1 -6.39599,6.3067 6.3959904,6.3067045 0 0 1 -6.39599,-6.3067 6.3959904,6.3067045 0 0 1 6.39599,-6.30671 6.3959904,6.3067045 0 0 1 6.39599,6.30671 z"
       id="path4156" />
    <path
       style="fill:none;fill-rule:evenodd;stroke:#1a1a1a;stroke-width:16;stroke-linecap:butt;stroke-linejoin:miter;stroke-opacity:1"
       d="M 292.67148,647.26304 489.14615,595.24019"
       id="path4173" />
    <path
       style="opacity:1;fill:#000000;fill-opacity:1;stroke:#1a1a1a;stroke-width:3.42946815;stroke-opacity:1"
       d="m 495.87322,595.16516 a 6.3959904,6.3067045 0 0 1 -6.39599,6.30671 6.3959904,6.3067045 0 0 1 -6.39599,-6.30671 6.3959904,6.3067045 0 0 1 6.39599,-6.3067 6.3959904,6.3067045 0 0 1 6.39599,6.3067 z"
       id="path4156-71" />
    <path
       style="opacity:1;fill:#1a1a1a;fill-opacity:1;stroke:#1a1a1a;stroke-width:2.67660809;stroke-opacity:1"
       d="m 354.63239,655.92181 a 4.9917965,4.9223142 0 0 1 -4.9918,4.92232 4.9917965,4.9223142 0 0 1 -4.99179,-4.92232 4.9917965,4.9223142 0 0 1 4.99179,-4.92231 4.9917965,4.9223142 0 0 1 4.9918,4.92231 z"
       id="path4156-6" />
    <path
       style="fill:none;fill-rule:evenodd;stroke:#1a1a1a;stroke-width:12.48757267;stroke-linecap:butt;stroke-linejoin:miter;stroke-opacity:1"
       d="M 349.17165,656.06215 502.51171,615.45889"
       id="path4173-5" />
    <path
       style="opacity:1;fill:#000000;fill-opacity:1;stroke:#1a1a1a;stroke-width:2.67660809;stroke-opacity:1"
       d="m 507.76185,615.40039 a 4.9917965,4.9223142 0 0 1 -4.9918,4.92231 4.9917965,4.9223142 0 0 1 -4.9918,-4.92231 4.9917965,4.9223142 0 0 1 4.9918,-4.92231 4.9917965,4.9223142 0 0 1 4.9918,4.92231 z"
       id="path4156-71-0" />
    <path
       style="fill:none;fill-rule:evenodd;stroke:#1a1a1a;stroke-width:6;stroke-linecap:butt;stroke-linejoin:miter;stroke-opacity:1"
       d="M 82.751288,699.81899 47.395949,562.43824"
       id="path4211" />
    <g
       transform="matrix(2.1958777,0,0,1.6388719,-347.92599,-553.41937)"
       style="font-style:normal;font-variant:normal;font-weight:normal;font-stretch:normal;font-size:109.31794739px;line-height:125%;font-family:'Roboto Condensed';letter-spacing:0px;word-spacing:0px;fill:#e9afaf;fill-opacity:1;stroke:none;stroke-width:1px;stroke-linecap:butt;stroke-linejoin:miter;stroke-opacity:1"
       id="text4290">
      <path
         d="m 358.47879,577.65685 24.71397,34.5355 -59.24948,80.49388 -59.4096,-80.49388 24.66059,-34.5355 69.28452,0 z m -14.19852,36.45711 -40.67397,0 20.33698,61.01094 20.33699,-61.01094 z m -66.40212,0 40.24694,55.77991 -18.57551,-55.77991 -21.67143,0 z m 51.88333,55.77991 40.24694,-55.77991 -21.67143,0 -18.57551,55.77991 z m -51.9367,-59.6765 0,0.0534 22.2052,0 0.0534,-0.0534 19.69645,-22.9525 -25.56802,0 -16.38701,22.9525 z m 92.23701,0.0534 0,-0.0534 -16.44039,-22.9525 -25.51464,0 19.69645,22.9525 0.0534,0.0534 22.2052,0 z m -27.27611,0 -0.0534,-0.0534 -18.78903,-21.93832 -18.78902,21.93832 -0.0534,0.0534 37.6848,0 z"
         style="font-style:normal;font-variant:normal;font-weight:normal;font-stretch:normal;font-size:109.31794739px;line-height:125%;font-family:'Segoe UI Emoji';text-align:start;writing-mode:lr-tb;text-anchor:start;fill:#e9afaf;stroke:none"
         id="path4295" />
    </g>
    <text
       xml:space="preserve"
       style="font-style:normal;font-weight:normal;font-size:40px;line-height:100%;font-family:sans-serif;letter-spacing:0px;word-spacing:0px;fill:#000000;fill-opacity:1;stroke:none;stroke-width:1px;stroke-linecap:butt;stroke-linejoin:miter;stroke-opacity:1"
       x="586.89862"
       y="580.62097"
       id="text4297"><tspan
         id="tspan4299"
         x="586.89862"
         y="580.62097"
         style="font-style:normal;font-variant:normal;font-weight:normal;font-stretch:normal;font-size:180px;line-height:100%;font-family:sans-serif;text-align:start;writing-mode:lr-tb;text-anchor:start" /></text>
    <path
       style="opacity:1;fill:none;fill-opacity:1;stroke:#000000;stroke-width:16;stroke-opacity:1"
       d="M 702.42932,697.36224 A 339.42932,339.60263 0 0 1 363,1036.9649 339.42932,339.60263 0 0 1 23.570679,697.36224 339.42932,339.60263 0 0 1 363,357.75961 339.42932,339.60263 0 0 1 702.42932,697.36224 Z"
       id="path4136" />
    <g
       style="font-style:normal;font-weight:normal;font-size:40px;line-height:125%;font-family:sans-serif;letter-spacing:0px;word-spacing:0px;fill:#000000;fill-opacity:1;stroke:none;stroke-width:1px;stroke-linecap:butt;stroke-linejoin:miter;stroke-opacity:1"
       id="text4835"
       transform="translate(8,0)">
      <path
         d="m 32.880179,1169.2731 -16.204834,0 0,-80.4749 q 15.490722,-0.5493 19.830322,-0.5493 16.864014,0 26.696777,10.2722 9.832764,10.2173 9.832764,27.2461 0,43.5059 -40.155029,43.5059 z m -5.218506,-70.5872 0,60.1502 q 3.68042,0.5493 9.118652,0.5493 11.535645,0 18.127441,-8.6243 6.591797,-8.6792 6.591797,-24.0601 0,-28.5644 -25.653076,-28.5644 -1.538086,0 -8.184814,0.5493 z"
         style="font-style:normal;font-variant:normal;font-weight:normal;font-stretch:normal;font-size:112.5px;line-height:125%;font-family:'Trebuchet MS';text-align:center;letter-spacing:2.33999991px;writing-mode:lr-tb;text-anchor:middle"
         id="path4884" />
      <path
         d="m 84.164269,1128.349 q 0,-17.4683 8.73413,-29.2236 8.789061,-11.7554 23.675541,-11.7554 16.75415,0 25.65307,10.8215 8.95386,10.8216 8.95386,30.1575 0,19.8303 -8.95386,31.0913 -8.95385,11.2061 -25.65307,11.2061 -15.21607,0 -23.840335,-11.8653 -8.569336,-11.8652 -8.569336,-30.4321 z m 11.535644,0 q 0,13.8428 5.438237,23.1262 5.49316,9.2835 15.43579,9.2835 11.26098,0 17.13867,-8.5144 5.93262,-8.5144 5.93262,-23.8953 0,-31.0913 -23.07129,-31.0913 -10.21729,0 -15.54566,8.3496 -5.328367,8.3496 -5.328367,22.7417 z"
         style="font-style:normal;font-variant:normal;font-weight:normal;font-stretch:normal;font-size:112.5px;line-height:125%;font-family:'Trebuchet MS';text-align:center;letter-spacing:2.33999991px;writing-mode:lr-tb;text-anchor:middle"
         id="path4886" />
      <path
         d="m 217.51623,1091.7645 -3.68042,9.3933 q -5.27344,-3.8452 -16.58936,-3.8452 -10.6018,0 -17.02881,9.1187 -6.37207,9.1186 -6.37207,23.5107 0,13.7329 6.53687,22.3023 6.5918,8.5144 16.97388,8.5144 11.31591,0 17.41333,-8.0201 l 6.04248,8.4046 q -9.55811,9.5032 -24.60938,9.5032 -15.76538,0 -24.8291,-11.3709 -9.06372,-11.3708 -9.06372,-29.9927 0,-18.0175 9.66797,-29.9377 9.66797,-11.9202 24.99389,-11.9202 13.12867,0 20.54444,4.3396 z"
         style="font-style:normal;font-variant:normal;font-weight:normal;font-stretch:normal;font-size:112.5px;line-height:125%;font-family:'Trebuchet MS';text-align:center;letter-spacing:2.33999991px;writing-mode:lr-tb;text-anchor:middle"
         id="path4888" />
      <path
         d="m 280.11625,1169.2731 -22.68677,-37.024 -10.71167,15.2161 0,21.8079 -10.98633,0 0,-80.4749 10.98633,0 0,43.7805 29.88281,-43.7805 12.24976,0 -24.06006,34.8816 27.46582,45.5933 -12.13989,0 z"
         style="font-style:normal;font-variant:normal;font-weight:normal;font-stretch:normal;font-size:112.5px;line-height:125%;font-family:'Trebuchet MS';text-align:center;letter-spacing:2.33999991px;writing-mode:lr-tb;text-anchor:middle"
         id="path4890" />
      <path
         d="m 363.48042,1169.2731 -9.55811,-51.6907 -17.57813,52.7893 -2.74658,0 -18.07251,-52.7893 -9.33838,51.6907 -10.43701,0 15.05127,-80.4749 4.99878,0 19.17114,58.7219 17.68799,-58.7219 4.94385,0 16.3147,80.4749 -10.43701,0 z"
         style="font-style:normal;font-variant:normal;font-weight:normal;font-stretch:normal;font-size:112.5px;line-height:125%;font-family:'Trebuchet MS';text-align:center;letter-spacing:2.33999991px;writing-mode:lr-tb;text-anchor:middle"
         id="path4892" />
      <path
         d="m 430.69468,1169.2731 -5.5481,-16.9739 -29.93774,0 -5.93262,16.9739 -12.30469,0 32.68433,-81.5735 2.91138,0 30.32226,81.5735 -12.19482,0 z m -20.10498,-60.4798 -12.46948,35.4309 23.89526,0 -11.42578,-35.4309 z"
         style="font-style:normal;font-variant:normal;font-weight:normal;font-stretch:normal;font-size:112.5px;line-height:125%;font-family:'Trebuchet MS';text-align:center;letter-spacing:2.33999991px;writing-mode:lr-tb;text-anchor:middle"
         id="path4894" />
      <path
         d="m 450.06348,1165.5927 4.01001,-10.1075 q 3.07618,2.2522 7.6355,3.7903 4.61426,1.4832 8.23975,1.4832 6.427,0 10.32715,-3.5157 3.90014,-3.5156 3.90014,-8.9538 0,-4.065 -2.19726,-7.5257 -2.14234,-3.5156 -10.87647,-7.6354 l -6.48193,-3.0213 q -8.23975,-3.8452 -11.53565,-9.1186 -3.24096,-5.2735 -3.24096,-12.6892 0,-9.0088 6.37207,-14.9415 6.37207,-5.9326 16.36963,-5.9326 13.34839,0 18.56689,4.3396 l -3.24097,9.5581 q -2.19726,-1.593 -6.70166,-3.0761 -4.50439,-1.4832 -8.3496,-1.4832 -5.60303,0 -8.844,3.186 -3.18603,3.1861 -3.18603,8.1849 0,3.0761 1.15356,5.603 1.15356,2.5268 3.18604,4.2297 2.0874,1.7029 8.45947,4.7791 l 6.5918,3.1311 q 8.23974,3.9001 11.53564,9.3384 3.35083,5.3833 3.35083,13.7329 0,9.0637 -7.30591,15.3808 -7.25098,6.3172 -19.4458,6.3172 -10.71167,0 -18.29224,-5.0537 z"
         style="font-style:normal;font-variant:normal;font-weight:normal;font-stretch:normal;font-size:112.5px;line-height:125%;font-family:'Trebuchet MS';text-align:center;letter-spacing:2.33999991px;writing-mode:lr-tb;text-anchor:middle"
         id="path4896" />
      <path
         d="m 539.4152,1098.6859 0,70.5872 -10.98633,0 0,-70.5872 -25.59814,0 0,-9.8877 63.33618,0 0,9.8877 -26.75171,0 z"
         style="font-style:normal;font-variant:normal;font-weight:normal;font-stretch:normal;font-size:112.5px;line-height:125%;font-family:'Trebuchet MS';text-align:center;letter-spacing:2.33999991px;writing-mode:lr-tb;text-anchor:middle"
         id="path4898" />
      <path
         d="m 588.66682,1098.6859 0,22.3572 26.58691,0 0,9.3384 -26.58691,0 0,29.0039 36.47461,0 0,9.8877 -47.46094,0 0,-80.4749 48.06518,0 0,9.8877 -37.07885,0 z"
         style="font-style:normal;font-variant:normal;font-weight:normal;font-stretch:normal;font-size:112.5px;line-height:125%;font-family:'Trebuchet MS';text-align:center;letter-spacing:2.33999991px;writing-mode:lr-tb;text-anchor:middle"
         id="path4900" />
      <path
         d="m 684.88502,1169.2731 -21.47827,-34.552 q -3.68042,0 -11.64551,-0.5493 l 0,35.1013 -10.98633,0 0,-80.4749 q 0.60425,0 8.5144,-0.3845 7.96509,-0.4395 11.59058,-0.4395 29.00391,0 29.00391,23.0713 0,7.5806 -4.66919,13.678 -4.66919,6.0425 -11.09619,7.5256 l 23.34594,37.024 -12.57934,0 z m -33.12378,-70.5872 0,26.1475 q 3.95508,0.5493 7.69043,0.5493 9.88769,0 14.39209,-3.186 4.50439,-3.1861 4.50439,-11.3709 0,-6.7566 -4.83398,-9.7229 -4.83399,-2.9663 -15.271,-2.9663 -1.64795,0 -6.48193,0.5493 z"
         style="font-style:normal;font-variant:normal;font-weight:normal;font-stretch:normal;font-size:112.5px;line-height:125%;font-family:'Trebuchet MS';text-align:center;letter-spacing:2.33999991px;writing-mode:lr-tb;text-anchor:middle"
         id="path4902" />
    </g>
  </g>
</svg>
