<svg
   xmlns:dc="http://purl.org/dc/elements/1.1/"
   xmlns:cc="http://creativecommons.org/ns#"
   xmlns:rdf="http://www.w3.org/1999/02/22-rdf-syntax-ns#"
   xmlns:svg="http://www.w3.org/2000/svg"
   xmlns="http://www.w3.org/2000/svg"
   width="200mm"
   height="200mm"
   viewBox="0 0 708.66142 708.66141"
   id="svg2"
   version="1.1">
  <defs
     id="defs4" />
  <metadata
     id="metadata7">
    <rdf:RDF>
      <cc:Work
         rdf:about="">
        <dc:format>Dockmaster</dc:format>
        <dc:type
           rdf:resource="http://purl.org/dc/dcmitype/StillImage" />
        <dc:title />
      </cc:Work>
    </rdf:RDF>
  </metadata>
  <g
     id="layer1"
     transform="translate(0,-343.70079)">
    <path
       style="fill:none;fill-rule:evenodd;stroke:#aaeeff;stroke-width:3.66253209;stroke-linecap:butt;stroke-linejoin:miter;stroke-opacity:1"
       d="m 379.81736,977.10586 167.68532,0"
       id="path4322" />
    <path
       style="fill:#4d4d4d;fill-rule:evenodd;stroke:#4d4d4d;stroke-width:32;stroke-linecap:butt;stroke-linejoin:miter;stroke-opacity:1"
       d="m 56.568542,628.09816 -35.355339,9.09137"
       id="path4213" />
    <path
       style="opacity:1;fill:#4d4d4d;fill-opacity:1;stroke:#4d4d4d;stroke-width:4.50376844;stroke-opacity:1"
       d="m 219.2205,762.44843 a 8.6037073,8.085804 0 0 1 -8.60371,8.0858 8.6037073,8.085804 0 0 1 -8.60371,-8.0858 8.6037073,8.085804 0 0 1 8.60371,-8.08581 8.6037073,8.085804 0 0 1 8.60371,8.08581 z"
       id="path4156-71-0-0" />
    <path
       style="opacity:1;fill:#4d4d4d;fill-opacity:1;stroke:#4d4d4d;stroke-width:4.50376844;stroke-opacity:1"
       d="m 170.22811,771.03467 a 8.6037073,8.085804 0 0 1 -8.60371,8.0858 8.6037073,8.085804 0 0 1 -8.6037,-8.0858 8.6037073,8.085804 0 0 1 8.6037,-8.08581 8.6037073,8.085804 0 0 1 8.60371,8.08581 z"
       id="path4156-71-0-0-9" />
    <path
       style="opacity:1;fill:#4d4d4d;fill-opacity:1;stroke:#4d4d4d;stroke-width:4.50376844;stroke-opacity:1"
       d="m 121.23572,782.65149 a 8.6037073,8.085804 0 0 1 -8.60371,8.0858 8.6037073,8.085804 0 0 1 -8.60371,-8.0858 8.6037073,8.085804 0 0 1 8.60371,-8.0858 8.6037073,8.085804 0 0 1 8.60371,8.0858 z"
       id="path4156-71-0-0-6" />
    <path
       style="opacity:1;fill:#4d4d4d;fill-opacity:1;stroke:#4d4d4d;stroke-width:4.50376844;stroke-opacity:1"
       d="m 70.728086,797.29871 a 8.6037073,8.085804 0 0 1 -8.603708,8.0858 8.6037073,8.085804 0 0 1 -8.603707,-8.0858 8.6037073,8.085804 0 0 1 8.603707,-8.08581 8.6037073,8.085804 0 0 1 8.603708,8.08581 z"
       id="path4156-71-0-0-5" />
    <path
       transform="matrix(0.97145083,-0.237241,0.09789145,0.9951971,0,0)"
       style="opacity:1;fill:#4d4d4d;fill-opacity:1;stroke:#4d4d4d;stroke-width:5.10651588;stroke-opacity:1"
       d="m 24.256166,716.68341 19.810538,0 c 0.74041,0 1.336481,0.89891 1.336481,2.01549 0,1.11658 -0.596071,2.01549 -1.336481,2.01549 l -19.810538,0 c -0.74041,0 -1.336481,-0.89891 -1.336481,-2.01549 0,-1.11658 0.596071,-2.01549 1.336481,-2.01549 z"
       id="rect4267" />
    <path
       transform="matrix(0.95931178,-0.28234893,0.14426037,0.98953976,0,0)"
       style="opacity:1;fill:#4d4d4d;fill-opacity:1;stroke:#4d4d4d;stroke-width:5.10651588;stroke-opacity:1"
       d="m -43.631811,712.42157 19.810537,0 c 0.740411,0 1.336481,0.89891 1.336481,2.01549 0,1.11658 -0.59607,2.01549 -1.336481,2.01549 l -19.810537,0 c -0.740411,0 -1.336481,-0.89891 -1.336481,-2.01549 0,-1.11658 0.59607,-2.01549 1.336481,-2.01549 z"
       id="rect4267-2" />
    <path
       transform="matrix(0.9436755,-0.33087241,0.19450384,0.98090176,0,0)"
       style="opacity:1;fill:#4d4d4d;fill-opacity:1;stroke:#4d4d4d;stroke-width:5.10651588;stroke-opacity:1"
       d="m -115.82231,704.02173 19.810538,0 c 0.74041,0 1.336481,0.89891 1.336481,2.01549 0,1.11658 -0.596071,2.01549 -1.336481,2.01549 l -19.810538,0 c -0.74041,0 -1.33648,-0.89891 -1.33648,-2.01549 0,-1.11658 0.59607,-2.01549 1.33648,-2.01549 z"
       id="rect4267-7" />
    <path
       style="fill:#808080;fill-rule:evenodd;stroke:#808080;stroke-width:3;stroke-linecap:butt;stroke-linejoin:miter;stroke-opacity:1"
       d="m 315.1676,630.62354 1.01015,40.4061"
       id="path4265" />
    <path
       style="fill:#1a1a1a;fill-rule:evenodd;stroke:#1a1a1a;stroke-width:8;stroke-linecap:butt;stroke-linejoin:miter;stroke-opacity:1"
       d="M 352.54323,1032.1592 C 381.6693,878.44764 448.17101,767.55733 522.24886,666.37371 l 0,144.45183 C 472.07795,864.70033 425.94765,929.29195 378.8072,1035.1896 Z"
       id="path4138" />
    <path
       style="fill:none;fill-rule:evenodd;stroke:#1a1a1a;stroke-width:8;stroke-linecap:butt;stroke-linejoin:miter;stroke-opacity:1"
       d="m 17.46846,775.9604 c 59.446713,-25.51874 163.48371,-50.29345 223.08271,-52.65047 42.94039,-4.00129 -0.35713,-39.69393 37.68639,-47.63563 70.20901,-11.27203 140.91565,-17.38188 219.36433,-17.80964 l 28.58614,0.23876"
       id="path4140" />
    <path
       style="opacity:1;fill:none;fill-opacity:1;stroke:#666666;stroke-width:10;stroke-opacity:1"
       d="m 392.60507,722.01959 a 15.429292,15.465131 0 0 1 -15.42929,15.46513 15.429292,15.465131 0 0 1 -15.42929,-15.46513 15.429292,15.465131 0 0 1 15.42929,-15.46513 15.429292,15.465131 0 0 1 15.42929,15.46513 z"
       id="path4146" />
    <path
       style="fill:none;fill-rule:evenodd;stroke:#666666;stroke-width:10;stroke-linecap:butt;stroke-linejoin:miter;stroke-opacity:1"
       d="m 374.23025,736.08889 -9.24688,46.78853"
       id="path4148" />
    <path
       style="fill:none;fill-rule:evenodd;stroke:#666666;stroke-width:10;stroke-linecap:butt;stroke-linejoin:miter;stroke-opacity:1"
       d="m 335.87204,758.59835 c 0,0 7.28133,19.53973 28.20083,23.59044 21.15039,4.09541 36.55923,-9.9595 36.55923,-9.9595"
       id="path4150" />
    <path
       style="fill:#808080;fill-rule:evenodd;stroke:#808080;stroke-width:3;stroke-linecap:butt;stroke-linejoin:miter;stroke-opacity:1"
       d="m 218.19295,627.088 7.07107,68.69038"
       id="path4263" />
    <path
       style="fill:none;fill-rule:evenodd;stroke:#1a1a1a;stroke-width:6;stroke-linecap:butt;stroke-linejoin:miter;stroke-opacity:1"
       d="m 260.71428,692.36223 c -41.39442,-0.0254 -95.17681,9.28571 -130.89285,19.28571 l -7.05095,-23.95395 c -39.404756,8.47776 -75.508574,20.50157 -107.770479,32.52538"
       id="path4152" />
    <path
       style="fill:none;fill-rule:evenodd;stroke:#1a1a1a;stroke-width:6;stroke-linecap:butt;stroke-linejoin:miter;stroke-opacity:1"
       d="m 130.35714,711.2908 -17.5,-64.28572 c 92.38095,-21.19047 221.51789,-50.23809 233.21429,20"
       id="path4154" />
    <path
       style="opacity:1;fill:#1a1a1a;fill-opacity:1;stroke:#1a1a1a;stroke-width:3.42946815;stroke-opacity:1"
       d="m 291.6683,647.08307 a 6.3959904,6.3067045 0 0 1 -6.39599,6.3067 6.3959904,6.3067045 0 0 1 -6.39599,-6.3067 6.3959904,6.3067045 0 0 1 6.39599,-6.30671 6.3959904,6.3067045 0 0 1 6.39599,6.30671 z"
       id="path4156" />
    <path
       style="fill:none;fill-rule:evenodd;stroke:#1a1a1a;stroke-width:16;stroke-linecap:butt;stroke-linejoin:miter;stroke-opacity:1"
       d="M 284.67148,647.26304 481.14615,595.24019"
       id="path4173" />
    <path
       style="opacity:1;fill:#000000;fill-opacity:1;stroke:#1a1a1a;stroke-width:3.42946815;stroke-opacity:1"
       d="m 487.87322,595.16516 a 6.3959904,6.3067045 0 0 1 -6.39599,6.30671 6.3959904,6.3067045 0 0 1 -6.39599,-6.30671 6.3959904,6.3067045 0 0 1 6.39599,-6.3067 6.3959904,6.3067045 0 0 1 6.39599,6.3067 z"
       id="path4156-71" />
    <path
       style="opacity:1;fill:#1a1a1a;fill-opacity:1;stroke:#1a1a1a;stroke-width:2.67660809;stroke-opacity:1"
       d="m 346.63239,655.92181 a 4.9917965,4.9223142 0 0 1 -4.9918,4.92232 4.9917965,4.9223142 0 0 1 -4.99179,-4.92232 4.9917965,4.9223142 0 0 1 4.99179,-4.92231 4.9917965,4.9223142 0 0 1 4.9918,4.92231 z"
       id="path4156-6" />
    <path
       style="fill:none;fill-rule:evenodd;stroke:#1a1a1a;stroke-width:12.48757267;stroke-linecap:butt;stroke-linejoin:miter;stroke-opacity:1"
       d="M 341.17165,656.06215 494.51171,615.45889"
       id="path4173-5" />
    <path
       style="opacity:1;fill:#000000;fill-opacity:1;stroke:#1a1a1a;stroke-width:2.67660809;stroke-opacity:1"
       d="m 499.76185,615.40039 a 4.9917965,4.9223142 0 0 1 -4.9918,4.92231 4.9917965,4.9223142 0 0 1 -4.9918,-4.92231 4.9917965,4.9223142 0 0 1 4.9918,-4.92231 4.9917965,4.9223142 0 0 1 4.9918,4.92231 z"
       id="path4156-71-0" />
    <path
       style="fill:none;fill-rule:evenodd;stroke:#1a1a1a;stroke-width:6;stroke-linecap:butt;stroke-linejoin:miter;stroke-opacity:1"
       d="M 74.751288,699.81899 39.395949,562.43824"
       id="path4211" />
    <g
       transform="matrix(2.1958777,0,0,1.6388719,-355.92599,-553.41937)"
       style="font-style:normal;font-variant:normal;font-weight:normal;font-stretch:normal;font-size:109.31794739px;line-height:125%;font-family:'Roboto Condensed';letter-spacing:0px;word-spacing:0px;fill:#e9afaf;fill-opacity:1;stroke:none;stroke-width:1px;stroke-linecap:butt;stroke-linejoin:miter;stroke-opacity:1"
       id="text4290">
      <path
         d="m 358.47879,577.65685 24.71397,34.5355 -59.24948,80.49388 -59.4096,-80.49388 24.66059,-34.5355 69.28452,0 z m -14.19852,36.45711 -40.67397,0 20.33698,61.01094 20.33699,-61.01094 z m -66.40212,0 40.24694,55.77991 -18.57551,-55.77991 -21.67143,0 z m 51.88333,55.77991 40.24694,-55.77991 -21.67143,0 -18.57551,55.77991 z m -51.9367,-59.6765 0,0.0534 22.2052,0 0.0534,-0.0534 19.69645,-22.9525 -25.56802,0 -16.38701,22.9525 z m 92.23701,0.0534 0,-0.0534 -16.44039,-22.9525 -25.51464,0 19.69645,22.9525 0.0534,0.0534 22.2052,0 z m -27.27611,0 -0.0534,-0.0534 -18.78903,-21.93832 -18.78902,21.93832 -0.0534,0.0534 37.6848,0 z"
         style="font-style:normal;font-variant:normal;font-weight:normal;font-stretch:normal;font-size:109.31794739px;line-height:125%;font-family:'Segoe UI Emoji';;text-align:start;writing-mode:lr-tb;text-anchor:start;stroke:none;fill:#e9afaf"
         id="path4295" />
    </g>
    <text
       xml:space="preserve"
       style="font-style:normal;font-weight:normal;font-size:40px;line-height:100%;font-family:sans-serif;letter-spacing:0px;word-spacing:0px;fill:#000000;fill-opacity:1;stroke:none;stroke-width:1px;stroke-linecap:butt;stroke-linejoin:miter;stroke-opacity:1"
       x="586.89862"
       y="580.62097"
       id="text4297"><tspan
         id="tspan4299"
         x="586.89862"
         y="580.62097"
         style="font-style:normal;font-variant:normal;font-weight:normal;font-stretch:normal;font-size:180px;line-height:100%;font-family:sans-serif;text-align:start;writing-mode:lr-tb;text-anchor:start" /></text>
    <path
       style="opacity:1;fill:none;fill-opacity:1;stroke:#000000;stroke-width:16;stroke-opacity:1"
       d="M 694.42932,697.36224 A 339.42932,339.60263 0 0 1 355,1036.9649 339.42932,339.60263 0 0 1 15.570679,697.36224 339.42932,339.60263 0 0 1 355,357.75961 339.42932,339.60263 0 0 1 694.42932,697.36224 Z"
       id="path4136" />
  </g>
</svg>
