<?xml version="1.0" encoding="UTF-8" ?>
<svg
   xmlns:dc="http://purl.org/dc/elements/1.1/"
   xmlns:cc="http://creativecommons.org/ns#"
   xmlns:rdf="http://www.w3.org/1999/02/22-rdf-syntax-ns#"
   xmlns:svg="http://www.w3.org/2000/svg"
   xmlns="http://www.w3.org/2000/svg"
   width="1300mm"
   height="200mm"
   viewBox="0 0 4606.2992 708.66141"
   id="svg4362"
   version="1.1">
  <defs
     id="defs4364" />
  <metadata
     id="metadata4367">
    <rdf:RDF>
      <cc:Work
         rdf:about="">
        <dc:format>image/svg+xml</dc:format>
        <dc:type
           rdf:resource="http://purl.org/dc/dcmitype/StillImage" />
        <dc:title></dc:title>
      </cc:Work>
    </rdf:RDF>
  </metadata>
  <g
     id="layer1"
     transform="translate(0,-343.70079)">
    <path
       style="fill:none;fill-rule:evenodd;stroke:#aaeeff;stroke-width:3.66253209;stroke-linecap:butt;stroke-linejoin:miter;stroke-opacity:1"
       d="m 381.96022,978.1058 167.68532,0"
       id="path4322" />
    <path
       style="fill:#4d4d4d;fill-rule:evenodd;stroke:#4d4d4d;stroke-width:32;stroke-linecap:butt;stroke-linejoin:miter;stroke-opacity:1"
       d="m 58.7114,629.09814 -35.35534,9.09137"
       id="path4213" />
    <path
       style="opacity:1;fill:#4d4d4d;fill-opacity:1;stroke:#4d4d4d;stroke-width:4.50376844;stroke-opacity:1"
       d="m 221.36335,763.44836 a 8.6037073,8.085804 0 0 1 -8.60371,8.08581 8.6037073,8.085804 0 0 1 -8.6037,-8.08581 8.6037073,8.085804 0 0 1 8.6037,-8.0858 8.6037073,8.085804 0 0 1 8.60371,8.0858 z"
       id="path4156-71-0-0" />
    <path
       style="opacity:1;fill:#4d4d4d;fill-opacity:1;stroke:#4d4d4d;stroke-width:4.50376844;stroke-opacity:1"
       d="m 172.37098,772.03461 a 8.6037073,8.085804 0 0 1 -8.60371,8.0858 8.6037073,8.085804 0 0 1 -8.6037,-8.0858 8.6037073,8.085804 0 0 1 8.6037,-8.08581 8.6037073,8.085804 0 0 1 8.60371,8.08581 z"
       id="path4156-71-0-0-9" />
    <path
       style="opacity:1;fill:#4d4d4d;fill-opacity:1;stroke:#4d4d4d;stroke-width:4.50376844;stroke-opacity:1"
       d="m 123.37858,783.65143 a 8.6037073,8.085804 0 0 1 -8.60371,8.0858 8.6037073,8.085804 0 0 1 -8.60371,-8.0858 8.6037073,8.085804 0 0 1 8.60371,-8.08581 8.6037073,8.085804 0 0 1 8.60371,8.08581 z"
       id="path4156-71-0-0-6" />
    <path
       style="opacity:1;fill:#4d4d4d;fill-opacity:1;stroke:#4d4d4d;stroke-width:4.50376844;stroke-opacity:1"
       d="m 72.87095,798.29865 a 8.6037073,8.085804 0 0 1 -8.603708,8.0858 8.6037073,8.085804 0 0 1 -8.603707,-8.0858 8.6037073,8.085804 0 0 1 8.603707,-8.08581 8.6037073,8.085804 0 0 1 8.603708,8.08581 z"
       id="path4156-71-0-0-5" />
    <path
       transform="matrix(0.97145083,-0.237241,0.09789145,0.9951971,0,0)"
       style="opacity:1;fill:#4d4d4d;fill-opacity:1;stroke:#4d4d4d;stroke-width:5.10651588;stroke-opacity:1"
       d="m 26.311523,718.17383 19.810538,0 c 0.74041,0 1.336481,0.89891 1.336481,2.01549 0,1.11658 -0.596071,2.01549 -1.336481,2.01549 l -19.810538,0 c -0.74041,0 -1.336481,-0.89891 -1.336481,-2.01549 0,-1.11658 0.596071,-2.01549 1.336481,-2.01549 z"
       id="rect4267" />
    <path
       transform="matrix(0.95931178,-0.28234893,0.14426037,0.98953976,0,0)"
       style="opacity:1;fill:#4d4d4d;fill-opacity:1;stroke:#4d4d4d;stroke-width:5.10651588;stroke-opacity:1"
       d="m -41.635515,713.99829 19.810537,0 c 0.740411,0 1.336481,0.89891 1.336481,2.01549 0,1.11658 -0.59607,2.01549 -1.336481,2.01549 l -19.810537,0 c -0.740411,0 -1.336481,-0.89891 -1.336481,-2.01549 0,-1.11658 0.59607,-2.01549 1.336481,-2.01549 z"
       id="rect4267-2" />
    <path
       transform="matrix(0.9436755,-0.33087241,0.19450384,0.98090176,0,0)"
       style="opacity:1;fill:#4d4d4d;fill-opacity:1;stroke:#4d4d4d;stroke-width:5.10651588;stroke-opacity:1"
       d="m -113.89629,705.68927 19.810536,0 c 0.74041,0 1.336481,0.89891 1.336481,2.01549 0,1.11658 -0.596071,2.01549 -1.336481,2.01549 l -19.810536,0 c -0.74041,0 -1.33648,-0.89891 -1.33648,-2.01549 0,-1.11658 0.59607,-2.01549 1.33648,-2.01549 z"
       id="rect4267-7" />
    <path
       style="fill:#808080;fill-rule:evenodd;stroke:#808080;stroke-width:3;stroke-linecap:butt;stroke-linejoin:miter;stroke-opacity:1"
       d="m 317.31046,631.62352 1.01015,40.4061"
       id="path4265" />
    <path
       style="fill:#1a1a1a;fill-rule:evenodd;stroke:#1a1a1a;stroke-width:8;stroke-linecap:butt;stroke-linejoin:miter;stroke-opacity:1"
       d="M 354.68609,1033.1592 C 383.81216,879.4476 450.31387,768.55731 524.39172,667.37369 l 0,144.45183 C 474.22081,865.7003 428.09051,930.2919 380.95006,1036.1896 Z"
       id="path4138" />
    <path
       style="fill:none;fill-rule:evenodd;stroke:#1a1a1a;stroke-width:8;stroke-linecap:butt;stroke-linejoin:miter;stroke-opacity:1"
       d="m 19.61132,776.96038 c 59.44671,-25.51874 163.48371,-50.29345 223.08271,-52.65047 42.94039,-4.00129 -0.35713,-39.69393 37.68639,-47.63563 70.20901,-11.27203 140.91565,-17.38188 219.36433,-17.80964 l 28.58614,0.23876"
       id="path4140" />
    <path
       style="opacity:1;fill:none;fill-opacity:1;stroke:#666666;stroke-width:10;stroke-opacity:1"
       d="m 394.74793,723.01953 a 15.429292,15.465131 0 0 1 -15.4293,15.46513 15.429292,15.465131 0 0 1 -15.42929,-15.46513 15.429292,15.465131 0 0 1 15.42929,-15.46513 15.429292,15.465131 0 0 1 15.4293,15.46513 z"
       id="path4146" />
    <path
       style="fill:none;fill-rule:evenodd;stroke:#666666;stroke-width:10;stroke-linecap:butt;stroke-linejoin:miter;stroke-opacity:1"
       d="m 376.37311,737.08887 -9.24688,46.78853"
       id="path4148" />
    <path
       style="fill:none;fill-rule:evenodd;stroke:#666666;stroke-width:10;stroke-linecap:butt;stroke-linejoin:miter;stroke-opacity:1"
       d="m 338.0149,759.59833 c 0,0 7.28133,19.53973 28.20083,23.59044 21.15039,4.09541 36.55923,-9.9595 36.55923,-9.9595"
       id="path4150" />
    <path
       style="fill:#808080;fill-rule:evenodd;stroke:#808080;stroke-width:3;stroke-linecap:butt;stroke-linejoin:miter;stroke-opacity:1"
       d="m 220.33581,628.08798 7.07107,68.69038"
       id="path4263" />
    <path
       style="fill:none;fill-rule:evenodd;stroke:#1a1a1a;stroke-width:6;stroke-linecap:butt;stroke-linejoin:miter;stroke-opacity:1"
       d="m 262.85714,693.36221 c -41.39442,-0.0254 -95.17681,9.28571 -130.89285,19.28571 l -7.05095,-23.95395 c -39.40476,8.47776 -75.50858,20.50157 -107.77048,32.52538"
       id="path4152" />
    <path
       style="fill:none;fill-rule:evenodd;stroke:#1a1a1a;stroke-width:6;stroke-linecap:butt;stroke-linejoin:miter;stroke-opacity:1"
       d="M 132.5,712.29078 115,648.00506 c 92.38095,-21.19047 221.51789,-50.23809 233.21429,20"
       id="path4154" />
    <path
       style="opacity:1;fill:#1a1a1a;fill-opacity:1;stroke:#1a1a1a;stroke-width:3.42946815;stroke-opacity:1"
       d="m 293.81115,648.08301 a 6.3959904,6.3067045 0 0 1 -6.39599,6.3067 6.3959904,6.3067045 0 0 1 -6.39599,-6.3067 6.3959904,6.3067045 0 0 1 6.39599,-6.30671 6.3959904,6.3067045 0 0 1 6.39599,6.30671 z"
       id="path4156" />
    <path
       style="fill:none;fill-rule:evenodd;stroke:#1a1a1a;stroke-width:16;stroke-linecap:butt;stroke-linejoin:miter;stroke-opacity:1"
       d="M 286.81434,648.26302 483.28901,596.24017"
       id="path4173" />
    <path
       style="opacity:1;fill:#000000;fill-opacity:1;stroke:#1a1a1a;stroke-width:3.42946815;stroke-opacity:1"
       d="m 490.01608,596.1651 a 6.3959904,6.3067045 0 0 1 -6.39599,6.3067 6.3959904,6.3067045 0 0 1 -6.39599,-6.3067 6.3959904,6.3067045 0 0 1 6.39599,-6.3067 6.3959904,6.3067045 0 0 1 6.39599,6.3067 z"
       id="path4156-71" />
    <path
       style="opacity:1;fill:#1a1a1a;fill-opacity:1;stroke:#1a1a1a;stroke-width:2.67660809;stroke-opacity:1"
       d="m 348.77524,656.92175 a 4.9917965,4.9223142 0 0 1 -4.99179,4.92232 4.9917965,4.9223142 0 0 1 -4.9918,-4.92232 4.9917965,4.9223142 0 0 1 4.9918,-4.92231 4.9917965,4.9223142 0 0 1 4.99179,4.92231 z"
       id="path4156-6" />
    <path
       style="fill:none;fill-rule:evenodd;stroke:#1a1a1a;stroke-width:12.48757267;stroke-linecap:butt;stroke-linejoin:miter;stroke-opacity:1"
       d="M 343.31451,657.06213 496.65457,616.45887"
       id="path4173-5" />
    <path
       style="opacity:1;fill:#000000;fill-opacity:1;stroke:#1a1a1a;stroke-width:2.67660809;stroke-opacity:1"
       d="m 501.9047,616.40033 a 4.9917965,4.9223142 0 0 1 -4.9918,4.92231 4.9917965,4.9223142 0 0 1 -4.99179,-4.92231 4.9917965,4.9223142 0 0 1 4.99179,-4.92231 4.9917965,4.9223142 0 0 1 4.9918,4.92231 z"
       id="path4156-71-0" />
    <path
       style="fill:none;fill-rule:evenodd;stroke:#1a1a1a;stroke-width:6;stroke-linecap:butt;stroke-linejoin:miter;stroke-opacity:1"
       d="M 76.89414,700.81897 41.53881,563.43822"
       id="path4211" />
    <g
       transform="matrix(2.1958777,0,0,1.6388719,-353.78313,-552.41939)"
       style="font-style:normal;font-variant:normal;font-weight:normal;font-stretch:normal;font-size:109.31794739px;line-height:125%;font-family:'Roboto Condensed';letter-spacing:0px;word-spacing:0px;fill:#e9afaf;fill-opacity:1;stroke:none;stroke-width:1px;stroke-linecap:butt;stroke-linejoin:miter;stroke-opacity:1"
       id="text4290">
      <path
         d="m 358.47879,577.65685 24.71397,34.5355 -59.24948,80.49388 -59.4096,-80.49388 24.66059,-34.5355 69.28452,0 z m -14.19852,36.45711 -40.67397,0 20.33698,61.01094 20.33699,-61.01094 z m -66.40212,0 40.24694,55.77991 -18.57551,-55.77991 -21.67143,0 z m 51.88333,55.77991 40.24694,-55.77991 -21.67143,0 -18.57551,55.77991 z m -51.9367,-59.6765 0,0.0534 22.2052,0 0.0534,-0.0534 19.69645,-22.9525 -25.56802,0 -16.38701,22.9525 z m 92.23701,0.0534 0,-0.0534 -16.44039,-22.9525 -25.51464,0 19.69645,22.9525 0.0534,0.0534 22.2052,0 z m -27.27611,0 -0.0534,-0.0534 -18.78903,-21.93832 -18.78902,21.93832 -0.0534,0.0534 37.6848,0 z"
         style="font-style:normal;font-variant:normal;font-weight:normal;font-stretch:normal;font-size:109.31794739px;line-height:125%;font-family:'Segoe UI Emoji';text-align:start;writing-mode:lr-tb;text-anchor:start;fill:#e9afaf;stroke:none"
         id="path4295" />
    </g>
    <g
       style="font-style:normal;font-weight:normal;font-size:40px;line-height:100%;font-family:sans-serif;letter-spacing:0px;word-spacing:0px;fill:#000000;fill-opacity:1;stroke:none;stroke-width:1px;stroke-linecap:butt;stroke-linejoin:miter;stroke-opacity:1"
       id="text4297" />
    <path
       style="opacity:1;fill:none;fill-opacity:1;stroke:#000000;stroke-width:16;stroke-opacity:1"
       d="M 696.57217,698.36218 A 339.42932,339.60263 0 0 1 357.14285,1037.9648 339.42932,339.60263 0 0 1 17.713531,698.36218 339.42932,339.60263 0 0 1 357.14285,358.75955 339.42932,339.60263 0 0 1 696.57217,698.36218 Z"
       id="path4136" />
    <g
       style="font-style:normal;font-weight:normal;font-size:40px;line-height:125%;font-family:sans-serif;letter-spacing:0px;word-spacing:0px;fill:#000000;fill-opacity:1;stroke:none;stroke-width:1px;stroke-linecap:butt;stroke-linejoin:miter;stroke-opacity:1"
       id="text5038">
      <path
         d="m 916.66034,925.21936 -90.02686,0 0,-447.08252 q 86.05957,-3.05176 110.16846,-3.05176 93.68896,0 148.31546,57.06787 54.6264,56.7627 54.6264,151.36719 0,241.69922 -223.08346,241.69922 z m -28.9917,-392.15088 0,334.16748 q 20.44678,3.05176 50.65918,3.05176 64.08688,0 100.70798,-47.9126 36.6211,-48.21777 36.6211,-133.66699 0,-158.69141 -142.51707,-158.69141 -8.54492,0 -45.47119,3.05176 z"
         style="font-style:normal;font-variant:normal;font-weight:normal;font-stretch:normal;font-size:625px;line-height:125%;font-family:'Trebuchet MS';text-align:start;letter-spacing:6px;writing-mode:lr-tb;text-anchor:start"
         id="path5057" />
      <path
         d="m 1194.572,697.8634 q 0,-97.0459 48.5229,-162.35351 48.8281,-65.30762 131.5308,-65.30762 93.0786,0 142.5171,60.11963 49.7436,60.11963 49.7436,167.5415 0,110.16846 -49.7436,172.7295 -49.7437,62.25585 -142.5171,62.25585 -84.5337,0 -132.4463,-65.91796 -47.6074,-65.91797 -47.6074,-169.06739 z m 64.0869,0 q 0,76.9043 30.2124,128.47901 30.5176,51.5747 85.7544,51.5747 62.561,0 95.2148,-47.30224 32.959,-47.30225 32.959,-132.75147 0,-172.72949 -128.1738,-172.72949 -56.7627,0 -86.3648,46.38672 -29.602,46.38672 -29.602,126.34277 z"
         style="font-style:normal;font-variant:normal;font-weight:normal;font-stretch:normal;font-size:625px;line-height:125%;font-family:'Trebuchet MS';text-align:start;letter-spacing:6px;writing-mode:lr-tb;text-anchor:start"
         id="path5059" />
      <path
         d="m 1928.4162,494.61633 -20.4468,52.18506 q -29.2969,-21.3623 -92.1631,-21.3623 -58.8989,0 -94.6045,50.65918 -35.4003,50.65918 -35.4003,130.61523 0,76.29395 36.3159,123.90137 36.6211,47.30224 94.2993,47.30224 62.8662,0 96.7407,-44.55566 l 33.5693,46.69189 q -53.1005,52.79541 -136.7187,52.79541 -87.5855,0 -137.9395,-63.17138 -50.354,-63.17139 -50.354,-166.62598 0,-100.09765 53.711,-166.3208 53.7109,-66.22314 138.855,-66.22314 72.937,0 114.1357,24.10888 z"
         style="font-style:normal;font-variant:normal;font-weight:normal;font-stretch:normal;font-size:625px;line-height:125%;font-family:'Trebuchet MS';text-align:start;letter-spacing:6px;writing-mode:lr-tb;text-anchor:start"
         id="path5061" />
      <path
         d="m 2269.194,925.21936 -126.0376,-205.68848 -59.5092,84.5337 0,121.15478 -61.0352,0 0,-447.08252 61.0352,0 0,243.2251 166.0156,-243.2251 68.0542,0 -133.667,193.78662 152.5879,253.2959 -67.4439,0 z"
         style="font-style:normal;font-variant:normal;font-weight:normal;font-stretch:normal;font-size:625px;line-height:125%;font-family:'Trebuchet MS';text-align:start;letter-spacing:6px;writing-mode:lr-tb;text-anchor:start"
         id="path5063" />
      <path
         d="m 2725.3283,925.21936 -53.1006,-287.17041 -97.6562,293.27393 -15.2588,0 -100.4028,-293.27393 -51.8799,287.17041 -57.9834,0 83.6181,-447.08252 27.771,0 106.5064,326.23291 98.2666,-326.23291 27.4658,0 90.6372,447.08252 -57.9834,0 z"
         style="font-style:normal;font-variant:normal;font-weight:normal;font-stretch:normal;font-size:625px;line-height:125%;font-family:'Trebuchet MS';text-align:start;letter-spacing:6px;writing-mode:lr-tb;text-anchor:start"
         id="path5065" />
      <path
         d="m 3091.7409,925.21936 -30.8227,-94.29932 -166.3208,0 -32.959,94.29932 -68.3594,0 181.5796,-453.18603 16.1743,0 168.457,453.18603 -67.749,0 z m -111.6943,-335.99853 -69.2749,196.83837 132.7514,0 -63.4765,-196.83837 z"
         style="font-style:normal;font-variant:normal;font-weight:normal;font-stretch:normal;font-size:625px;line-height:125%;font-family:'Trebuchet MS';text-align:start;letter-spacing:6px;writing-mode:lr-tb;text-anchor:start"
         id="path5067" />
      <path
         d="m 3192.3454,904.77258 22.2778,-56.15234 q 17.0899,12.51221 42.4195,21.05713 25.6347,8.23974 45.7763,8.23974 35.7056,0 57.3731,-19.53125 21.6675,-19.53125 21.6675,-49.74365 0,-22.58301 -12.2071,-41.80908 -11.9018,-19.53125 -60.4248,-42.41943 l -36.0107,-16.78467 q -45.7764,-21.36231 -64.0869,-50.65918 -18.0054,-29.29688 -18.0054,-70.49561 0,-50.04882 35.4004,-83.00781 35.4004,-32.95898 90.9424,-32.95898 74.1577,0 103.1494,24.10888 l -18.0054,53.10059 q -12.207,-8.8501 -37.2314,-17.08984 -25.0244,-8.23975 -46.3868,-8.23975 -31.1279,0 -49.1333,17.70019 -17.7001,17.7002 -17.7001,45.4712 0,17.08984 6.4086,31.12793 6.4087,14.03808 17.7002,23.49853 11.5967,9.46045 46.9971,26.55029 l 36.6211,17.39502 q 45.7764,21.66748 64.0869,51.87989 18.6157,29.90722 18.6157,76.29394 0,50.35401 -40.5883,85.44922 -40.2832,35.09521 -108.0323,35.09521 -59.5092,0 -101.6235,-28.07617 z"
         style="font-style:normal;font-variant:normal;font-weight:normal;font-stretch:normal;font-size:625px;line-height:125%;font-family:'Trebuchet MS';text-align:start;letter-spacing:6px;writing-mode:lr-tb;text-anchor:start"
         id="path5069" />
      <path
         d="m 3681.7438,533.06848 0,392.15088 -61.0351,0 0,-392.15088 -142.2119,0 0,-54.93164 351.8676,0 0,54.93164 -148.6206,0 z"
         style="font-style:normal;font-variant:normal;font-weight:normal;font-stretch:normal;font-size:625px;line-height:125%;font-family:'Trebuchet MS';text-align:start;letter-spacing:6px;writing-mode:lr-tb;text-anchor:start"
         id="path5071" />
      <path
         d="m 3948.364,533.06848 0,124.20654 147.705,0 0,51.87989 -147.705,0 0,161.13281 202.6367,0 0,54.93164 -263.6719,0 0,-447.08252 267.0288,0 0,54.93164 -205.9936,0 z"
         style="font-style:normal;font-variant:normal;font-weight:normal;font-stretch:normal;font-size:625px;line-height:125%;font-family:'Trebuchet MS';text-align:start;letter-spacing:6px;writing-mode:lr-tb;text-anchor:start"
         id="path5073" />
      <path
         d="M 4475.9094,925.21936 4356.5856,733.26379 q -20.4467,0 -64.6972,-3.05175 l 0,195.00732 -61.0352,0 0,-447.08252 q 3.3569,0 47.3023,-2.13623 44.2504,-2.44141 64.392,-2.44141 161.1329,0 161.1329,128.17383 0,42.11426 -25.94,75.98877 -25.9399,33.56934 -61.6455,41.80908 l 129.6997,205.68848 -69.8852,0 z m -184.021,-392.15088 0,145.26367 q 21.9726,3.05176 42.7246,3.05176 54.9316,0 79.956,-17.70019 25.0244,-17.7002 25.0244,-63.17139 0,-37.53662 -26.8554,-54.01611 -26.8555,-16.4795 -84.8389,-16.4795 -9.1553,0 -36.0107,3.05176 z"
         style="font-style:normal;font-variant:normal;font-weight:normal;font-stretch:normal;font-size:625px;line-height:125%;font-family:'Trebuchet MS';text-align:start;letter-spacing:6px;writing-mode:lr-tb;text-anchor:start"
         id="path5075" />
    </g>
  </g>
</svg>
